<svg viewBox="0 0 512 512" xmlns="http://www.w3.org/2000/svg"><path d="m499.52 327.72h-5v-22.06c19.88-20.12 17.62-56 17.24-60.56v-37.58a22 22 0 0 0 -21.94-21.94h-.82a21.78 21.78 0 0 0 -10.56 2.71 21.93 21.93 0 0 0 -17.17-8.3h-.84a22 22 0 0 0 -10.43 2.55 21.93 21.93 0 0 0 -16.79-7.82h-.84a22.08 22.08 0 0 0 -8.71 1.79 21.94 21.94 0 0 0 -18.33-9.88h-.84a22 22 0 0 0 -21.94 21.94v21.15c-8.81-.95-15.7.74-20.91 5.1-11.29 9.45-10.16 28.21-9.06 46.35 1.5 24.76 23.57 45.53 32.08 52.66v13.89h-4.24a8.08 8.08 0 0 0 -8.08 8.08v166.12a8.08 8.08 0 0 0 8.08 8.08h119a8.08 8.08 0 0 0 8.08-8.08v-166.12a8.08 8.08 0 0 0 -7.98-8.08zm-130.77-67.53c-.78-12.81-1.74-28.76 3.3-33 1.87-1.57 5.55-2 10.54-1.19v11a8.08 8.08 0 0 0 16.15 0v-48.42a5.8 5.8 0 0 1 5.79-5.79h.84a5.8 5.8 0 0 1 5.79 5.79v31.18a8.08 8.08 0 0 0 16.15 0v-25.83a5.77 5.77 0 0 1 5.09-3h.84a5.8 5.8 0 0 1 5.79 5.79v23.09a8.08 8.08 0 1 0 16.15.57 5.42 5.42 0 0 0 0-.57v-20.49a5.76 5.76 0 0 1 5.16-3.16h.84a5.8 5.8 0 0 1 5.82 5.84v21.79a8.08 8.08 0 0 0 16.15 0v-16.2a5.8 5.8 0 0 1 5.79-5.79h.84a5.8 5.8 0 0 1 5.79 5.79v38.7c.93 9.65.16 37.41-14.42 49.75a8.05 8.05 0 0 0 -2.86 6.17v25.58h-77.4v-17.79a8.09 8.09 0 0 0 -3.26-6.48c-.3-.25-27.51-20.8-28.88-43.33zm122.69 233.66h-102.89v-108.42h102.89zm0-124.57h-102.89v-25.4h102.89zm-148.3-235.9 37 15.61a21.27 21.27 0 0 0 27.86-11.33l4.47-10.66a21.28 21.28 0 0 0 -11.32-27.88l-43.88-18.43 2-7.33a1.53 1.53 0 0 1 .07-.29 21.94 21.94 0 0 0 -16.24-26.42l-.83-.2a21.76 21.76 0 0 0 -10.9.2 21.93 21.93 0 0 0 -14.79-12l-.82-.19a22.06 22.06 0 0 0 -10.62.1c-.28-.56-.59-1.11-.92-1.65a21.85 21.85 0 0 0 -13.62-9.91l-.83-.2a21.74 21.74 0 0 0 -8.87-.27 22.07 22.07 0 0 0 -15.57-13.84l-.81-.19a21.94 21.94 0 0 0 -26.39 16.15l-1.43 5.35-56.88-23.89h-.09l-.46-.17-.31-.1-.4-.1-.4-.09-.33-.05-.49-.06h-.12l-54.09-3.54a8.08 8.08 0 0 0 -6.13 13.86l38 37.14.07.06c.16.15.32.3.49.44l.25.19.27.21h.07l.42.26a21.62 21.62 0 0 0 3.29 1.84l34.59 14.61c-2.55 7.49-4.11 16.39-5.45 24.39-4.41 25.32 13.65 51.58 19.73 59.55v36.72h-6.73a8.08 8.08 0 0 0 -8.08 8.08v302.65a8.07 8.07 0 0 0 8.08 8h119a8.08 8.08 0 0 0 8.08-8.08v-202.12a8.08 8.08 0 0 0 -16.15-.57 5.42 5.42 0 0 0 0 .57v194h-102.88v-244.8h102.95v22.4a8.08 8.08 0 1 0 16.15.57 5.42 5.42 0 0 0 0-.57v-72.07a8.08 8.08 0 0 0 -8.08-8.08h-3.39l.07-20.87c13.6-9.03 21.25-24.73 25.39-37zm42.86-23.09 8.86 3.72a5.12 5.12 0 0 1 2.73 6.71l-4.49 10.64a5.13 5.13 0 0 1 -6.72 2.73l-9.45-4zm-38.57 6 5.49-19.86 18.18 7.57-9.1 19.82-14.83-6.26c.14-.56.21-1 .26-1.31zm-189.19-82.7-14.38-14 20.43 1.32zm13.25 9.76 9.18-19.35 51.78 21.76-5.64 21zm141.51 189.45h-102.95v-25.4h102.95zm-7-74.25a8.09 8.09 0 0 0 -4.42 7.18l-.09 24.7h-76.64v-38.71a8.06 8.06 0 0 0 -1.89-5.18c-.22-.27-22-26.55-18.07-48.78 1.22-7 2.58-14.76 4.52-20.87l14.59 6.11a8.07 8.07 0 0 0 15.36-.71l14.42-53.57.06-.23a5.79 5.79 0 0 1 7-4.3l.81.19a5.79 5.79 0 0 1 4.3 7l-.82 3.46-9.51 33a8.08 8.08 0 0 0 15.38 4.92c.05-.14.09-.28.13-.43l9.19-31.86a5.77 5.77 0 0 1 5.68-1.92l.83.2a5.78 5.78 0 0 1 4.31 6.9l-8.44 28.58a8.08 8.08 0 1 0 15.35 5c.05-.15.1-.31.14-.46l7.81-26.42a5.73 5.73 0 0 1 6-2.21l.82.19a5.8 5.8 0 0 1 4.3 7l-1.22 5.16-6.9 21.92a8.08 8.08 0 1 0 15.26 5.32l.15-.48 7-22.22a.39.39 0 0 1 .08-.29c.08-.09.05-.17.08-.26a5.79 5.79 0 0 1 7-4.31l.83.2a5.8 5.8 0 0 1 4.32 6.86l-12 43.19a8.45 8.45 0 0 0 -.21 1c-.09.38-5.16 34.77-25.56 45.12zm-146.23 131.1v-37.58a22 22 0 0 0 -21.94-21.95h-.83a21.78 21.78 0 0 0 -10.56 2.71 21.93 21.93 0 0 0 -17.17-8.3h-.84a22 22 0 0 0 -10.32 2.55 21.92 21.92 0 0 0 -16.79-7.83h-.84a22.11 22.11 0 0 0 -8.71 1.75 22 22 0 0 0 -18.33-9.88h-.84a22 22 0 0 0 -21.94 21.98v21.15c-8.82-1-15.7.74-20.91 5.1-11.32 9.47-10.18 28.23-9.08 46.37 1.5 24.76 23.57 45.53 32.08 52.66v13.89h-4.24a8.08 8.08 0 0 0 -8.08 8.08v121.58a8.08 8.08 0 0 0 8.08 8.07h119.05a8.08 8.08 0 0 0 8.08-8.08v-121.57a8.08 8.08 0 0 0 -8.08-8.08h-5v-22.06c19.85-20.12 17.59-56.01 17.21-60.56zm-20.29 204.2h-102.9v-63.85h102.9zm0-80h-102.9v-25.4h102.9zm-10.24-73.29a8.05 8.05 0 0 0 -2.86 6.17v25.58h-77.49v-17.81a8.06 8.06 0 0 0 -3.26-6.5c-7.64-5.67-27.7-24.49-28.84-43.27-.78-12.81-1.74-28.76 3.3-33 1.87-1.57 5.55-2 10.54-1.19v11a8.08 8.08 0 0 0 16.15 0v-48.42a5.8 5.8 0 0 1 5.79-5.79h.84a5.8 5.8 0 0 1 5.79 5.79v31.18a8.08 8.08 0 0 0 16.15 0v-25.83a5.77 5.77 0 0 1 5.09-3h.84a5.8 5.8 0 0 1 5.79 5.79v23.09a8.08 8.08 0 0 0 16.15 0v-20.49a5.76 5.76 0 0 1 5.16-3.16h.84a5.8 5.8 0 0 1 5.79 5.79v21.79a8.08 8.08 0 1 0 16.15.57 5.42 5.42 0 0 0 0-.57v-16.2a5.8 5.8 0 0 1 5.79-5.79h.84a5.8 5.8 0 0 1 5.79 5.79v38.69c1 9.66.23 37.42-14.35 49.76z" fill="#179dc7"/></svg>