<svg viewBox="0 0 512 512" xmlns="http://www.w3.org/2000/svg"><g fill="#179dc7"><path d="m366.93 477.87h-238.93a8.53 8.53 0 0 0 -8.53 8.53v17.07a8.53 8.53 0 0 0 17.06 0v-8.54h230.4a8.53 8.53 0 1 0 0-17.06zm-179.2-264.54a8.55 8.55 0 0 0 8.54 8.54h34.13a8.54 8.54 0 0 0 8.53-8.54v-51.2a8.53 8.53 0 0 0 -8.53-8.53h-34.13a8.54 8.54 0 0 0 -8.54 8.53zm17.07-42.66h17.07v34.13h-17.07zm-93.87-68.27h-102.4a8.53 8.53 0 0 0 -8.53 8.53v170.67a8.54 8.54 0 0 0 17.07 0v-162.13h93.86a8.54 8.54 0 1 0 0-17.07zm298.67 315.73a8.54 8.54 0 0 0 8.53 8.54h34.14a8.54 8.54 0 0 0 8.53-8.54v-51.2a8.53 8.53 0 0 0 -8.53-8.53h-34.14a8.53 8.53 0 0 0 -8.53 8.53zm17.07-42.66h17.06v34.13h-17.06zm-384-68.27c-42.18 0-42.67 109.8-42.67 110.93a42.75 42.75 0 0 0 34.13 41.81v43.53a8.54 8.54 0 0 0 17.07 0v-43.53a42.74 42.74 0 0 0 34.13-41.81c0-1.13-.48-110.93-42.66-110.93zm0 136.53a25.62 25.62 0 0 1 -25.6-25.6c0-42.51 11.42-93.86 25.6-93.86s25.6 51.35 25.6 93.86a25.63 25.63 0 0 1 -25.6 25.6zm51.2-187.73h-34.14a8.53 8.53 0 0 0 -8.53 8.53v17.07a8.54 8.54 0 0 0 17.07 0v-8.53h17.06v42.66a8.54 8.54 0 1 0 17.07 0v-51.2a8.53 8.53 0 0 0 -8.53-8.53zm324.26-34.13h34.14a8.54 8.54 0 0 0 8.53-8.54v-51.2a8.53 8.53 0 0 0 -8.53-8.53h-34.14a8.53 8.53 0 0 0 -8.53 8.53v51.2a8.54 8.54 0 0 0 8.53 8.54zm8.54-51.2h17.06v34.13h-17.06z"/><path d="m93.87 153.6h-34.14a8.53 8.53 0 0 0 -8.53 8.53v51.2a8.54 8.54 0 0 0 8.53 8.54h34.14a8.54 8.54 0 0 0 8.53-8.54v-51.2a8.53 8.53 0 0 0 -8.53-8.53zm-8.54 51.2h-17.06v-34.13h17.06zm187.74 8.53a8.54 8.54 0 0 0 8.53 8.54h34.13a8.55 8.55 0 0 0 8.54-8.54v-51.2a8.54 8.54 0 0 0 -8.54-8.53h-34.13a8.53 8.53 0 0 0 -8.53 8.53zm17.06-42.66h17.07v34.13h-17.07zm213.34-68.27h-102.4a8.54 8.54 0 1 0 0 17.07h93.86v342.9a25.12 25.12 0 0 0 -8.53-1.57 25.65 25.65 0 0 0 -4.38.38 34.08 34.08 0 0 0 -59.5 0 25.6 25.6 0 1 0 -4.38 50.82h68.26a25.64 25.64 0 0 0 25.6-25.6v-375.47a8.53 8.53 0 0 0 -8.53-8.53zm-17.07 392.53h-68.27a8.53 8.53 0 1 1 4.63-15.67 8.54 8.54 0 0 0 12.94-5.26 17 17 0 0 1 33.14 0 8.48 8.48 0 0 0 5.1 6 8.58 8.58 0 0 0 7.84-.73c5.55-3.59 13.15.8 13.15 7.14a8.54 8.54 0 0 1 -8.53 8.52zm-204.8-375.46h34.13a8.55 8.55 0 0 0 8.54-8.54v-51.2a8.54 8.54 0 0 0 -8.54-8.53h-34.13a8.53 8.53 0 0 0 -8.53 8.53v51.2a8.54 8.54 0 0 0 8.53 8.54zm8.53-51.2h17.07v34.13h-17.07zm-17.06 247.46a8.54 8.54 0 0 0 8.53 8.54h34.13a8.55 8.55 0 0 0 8.54-8.54v-51.2a8.54 8.54 0 0 0 -8.54-8.53h-34.13a8.53 8.53 0 0 0 -8.53 8.53zm17.06-42.66h17.07v34.13h-17.07zm-93.86-153.6h34.13a8.54 8.54 0 0 0 8.53-8.54v-51.2a8.53 8.53 0 0 0 -8.53-8.53h-34.13a8.54 8.54 0 0 0 -8.54 8.53v51.2a8.55 8.55 0 0 0 8.54 8.54zm8.53-51.2h17.07v34.13h-17.07zm45.14 343.81a8.53 8.53 0 1 0 12.12 0 8.94 8.94 0 0 0 -12.12 0zm-62.21-96.35a8.55 8.55 0 0 0 8.54 8.54h34.13a8.54 8.54 0 0 0 8.53-8.54v-51.2a8.53 8.53 0 0 0 -8.53-8.53h-34.13a8.54 8.54 0 0 0 -8.54 8.53zm17.07-42.66h17.07v34.13h-17.07z"/><path d="m170.67 366.93a8.54 8.54 0 0 0 8.53 8.54h25.6v76.8a8.54 8.54 0 0 0 17.07 0v-76.8h68.26v76.8a8.54 8.54 0 0 0 17.07 0v-76.8h25.6a8.54 8.54 0 0 0 0-17.07h-153.6a8.53 8.53 0 0 0 -8.53 8.53zm238.93-51.2a8.54 8.54 0 0 0 8.53 8.54h34.14a8.54 8.54 0 0 0 8.53-8.54v-51.2a8.53 8.53 0 0 0 -8.53-8.53h-34.14a8.53 8.53 0 0 0 -8.53 8.53zm17.07-42.66h17.06v34.13h-17.06z"/><path d="m366.93 0h-221.86a8.54 8.54 0 0 0 -8.54 8.53v443.74a8.54 8.54 0 0 0 17.07 0v-435.2h204.8v435.2a8.54 8.54 0 0 0 17.07 0v-443.74a8.54 8.54 0 0 0 -8.54-8.53z"/></g></svg>